<?xml version="1.0" encoding="UTF-8"?>
<svg id="Layer_1" data-name="Layer 1" xmlns="http://www.w3.org/2000/svg" viewBox="0 0 256 256">
  <defs>
    <style>
      .cls-1 {
        fill: #1e1e1e;
      }

      .cls-2 {
        fill: #a7c7e7;
      }
    </style>
  </defs>
  <g id="Essa">
    <g id="Family">
      <path class="cls-2" d="M128,251.5c-68.098145,0-123.5-55.402344-123.5-123.5C4.5,59.901855,59.901855,4.5,128,4.5c68.097656,0,123.5,55.401855,123.5,123.5,0,68.097656-55.402344,123.5-123.5,123.5Z"/>
      <path class="cls-1" d="M128,9c31.786057,0,61.669586,12.378159,84.145691,34.854263,22.476151,22.476158,34.854309,52.359688,34.854309,84.145737s-12.378159,61.669586-34.854309,84.145691c-22.476105,22.476151-52.359634,34.854309-84.145691,34.854309s-61.669579-12.378159-84.145737-34.854309c-22.476105-22.476105-34.854263-52.359634-34.854263-84.145691s12.378159-61.669579,34.854263-84.145737c22.476158-22.476105,52.359688-34.854263,84.145737-34.854263M128,0C57.307526,0,0,57.307526,0,128s57.307526,128,128,128,128-57.307571,128-128S198.692429,0,128,0h0Z"/>
    </g>
    <g id="Essa-2" data-name="Essa">
      <path class="cls-1" d="M128,140.744141c-7.027344,0-12.744141-5.716797-12.744141-12.744141s5.716797-12.744141,12.744141-12.744141,12.744141,5.716797,12.744141,12.744141-5.716797,12.744141-12.744141,12.744141Z"/>
      <path class="cls-1" d="M128,115.755989c6.751373,0,12.244019,5.492638,12.244019,12.244011s-5.492645,12.244019-12.244019,12.244019-12.244011-5.492645-12.244011-12.244019,5.492638-12.244011,12.244011-12.244011M128,114.755989c-7.314468,0-13.244011,5.929543-13.244011,13.244011s5.929543,13.244019,13.244011,13.244019,13.244019-5.92955,13.244019-13.244019-5.92955-13.244011-13.244019-13.244011h0Z"/>
    </g>
  </g>
</svg>